<?xml version="1.0" encoding="utf-8"?>
<!-- Generator: Adobe Illustrator 16.0.0, SVG Export Plug-In . SVG Version: 6.00 Build 0)  -->
<!DOCTYPE svg PUBLIC "-//W3C//DTD SVG 1.1//EN" "http://www.w3.org/Graphics/SVG/1.1/DTD/svg11.dtd">
<svg version="1.1" id="Layer_1" xmlns="http://www.w3.org/2000/svg" xmlns:xlink="http://www.w3.org/1999/xlink" x="0px" y="0px"
	 width="404.73px" height="134.397px" viewBox="0 0 404.73 134.397" enable-background="new 0 0 404.73 134.397"
	 xml:space="preserve">
<g>
	<g>
		<path fill="none" d="M91.846,37.982c-2.428,0-4.811-0.073-7.168-0.218v79.422c-0.003,0-0.008,0-0.014,0v0.279
			c2.316,0.207,4.713,0.303,7.183,0.303c7.882,0,16.038-1.052,24.256-3.122c6.651-1.672,13.076-3.977,18.953-6.779V30.663
			c-3.524,1.191-7.135,2.26-10.83,3.188C113.355,36.595,102.461,37.982,91.846,37.982z"/>
		<path fill="none" d="M60.878,17.654c-7.879,0-16.038,1.049-24.258,3.121c-6.648,1.678-13.073,3.98-18.95,6.783v77.205
			c3.524-1.197,7.135-2.261,10.83-3.189c10.869-2.74,21.761-4.134,32.378-4.134c2.428,0,4.811,0.073,7.169,0.219V18.235
			c0.002,0,0.008,0.003,0.014,0.003v-0.28C65.745,17.754,63.348,17.654,60.878,17.654z"/>
		<path fill="#43B9EA" d="M68.047,97.658c-2.358-0.146-4.741-0.219-7.169-0.219c-10.617,0-21.509,1.394-32.378,4.134
			c-3.695,0.929-7.306,1.992-10.83,3.189V27.558c5.876-2.802,12.301-5.104,18.95-6.783c8.22-2.072,16.379-3.121,24.258-3.121
			c2.47,0,4.867,0.101,7.183,0.305v0.28c2.641,0.761,5.415,1.387,8.307,1.879c2.677,0.451,5.452,0.783,8.31,0.99V4.164
			c-7.093-2.047-15.157-3.127-23.8-3.127c-8.97,0-18.558,1.164-28.32,3.625C20.738,7.64,10.034,12.177,1.053,17.685v113.022
			c8.981-5.51,19.686-10.041,31.505-13.022c9.762-2.462,19.35-3.625,28.32-3.625c2.439,0,4.833,0.084,7.169,0.257V97.658z"/>
		<path fill="#4271B8" d="M120.164,17.74c-9.759,2.461-19.347,3.625-28.317,3.625c-2.439,0-4.833-0.084-7.168-0.257
			c-2.858-0.207-5.633-0.54-8.31-0.99c-2.892-0.492-5.667-1.119-8.307-1.879c-0.005,0-0.011-0.003-0.014-0.003v79.423v16.658v16.944
			c7.093,2.048,15.157,3.128,23.799,3.128c8.967,0,18.559-1.164,28.317-3.625c11.826-2.982,22.521-7.519,31.508-13.023V4.715
			C142.685,10.225,131.989,14.759,120.164,17.74z M135.055,107.867c-5.876,2.803-12.301,5.107-18.953,6.779
			c-8.218,2.07-16.374,3.122-24.256,3.122c-2.47,0-4.867-0.096-7.183-0.303v-0.279c0.006,0,0.011,0,0.014,0V37.764
			c2.358,0.146,4.741,0.218,7.168,0.218c10.615,0,21.509-1.387,32.378-4.131c3.695-0.929,7.306-1.997,10.83-3.188V107.867z"/>
	</g>
	<g>
		<g>
			<path fill="#FFFFFF" d="M175,61.681c-0.313-0.291-0.469-0.666-0.469-1.125V19.991c0-0.458,0.157-0.844,0.469-1.156
				s0.697-0.469,1.156-0.469h7.063c1.042,0,1.792,0.459,2.25,1.375l10.75,19.251l10.813-19.251c0.458-0.916,1.208-1.375,2.25-1.375
				h7.063c0.458,0,0.844,0.156,1.156,0.469s0.469,0.698,0.469,1.156v40.565c0,0.459-0.156,0.834-0.469,1.125
				c-0.313,0.292-0.698,0.438-1.156,0.438h-7.938c-0.417,0-0.781-0.156-1.094-0.469s-0.469-0.677-0.469-1.094V37.804l-6.75,12.376
				c-0.542,0.959-1.271,1.438-2.188,1.438h-3.375c-0.834,0-1.563-0.479-2.188-1.438l-6.688-12.376v22.751
				c0,0.459-0.156,0.834-0.469,1.125c-0.313,0.292-0.698,0.438-1.156,0.438h-7.875C175.698,62.118,175.313,61.973,175,61.681z"/>
			<path fill="#FFFFFF" d="M224.44,61.649c-0.313-0.313-0.469-0.677-0.469-1.094V19.991c0-0.458,0.146-0.844,0.438-1.156
				c0.291-0.313,0.666-0.469,1.125-0.469h29.502c0.457,0,0.844,0.156,1.156,0.469s0.469,0.698,0.469,1.156v6.188
				c0,0.459-0.156,0.834-0.469,1.125c-0.313,0.292-0.699,0.438-1.156,0.438h-19.751v7.938h18.376c0.457,0,0.844,0.156,1.156,0.469
				s0.469,0.698,0.469,1.156v5.688c0,0.459-0.156,0.844-0.469,1.156s-0.699,0.469-1.156,0.469h-18.376v8.125h20.251
				c0.457,0,0.844,0.156,1.156,0.469s0.469,0.698,0.469,1.156v6.188c0,0.459-0.156,0.834-0.469,1.125
				c-0.313,0.292-0.699,0.438-1.156,0.438h-30.002C225.117,62.118,224.753,61.962,224.44,61.649z"/>
			<path fill="#FFFFFF" d="M262.066,61.649c-0.313-0.313-0.469-0.677-0.469-1.094V19.991c0-0.458,0.146-0.844,0.438-1.156
				c0.291-0.313,0.666-0.469,1.125-0.469h16.438c6.167,0,10.959,1.469,14.376,4.407c3.416,2.938,5.208,7.156,5.375,12.657
				c0.041,1.209,0.063,2.813,0.063,4.813c0,2-0.021,3.584-0.063,4.75c-0.417,11.417-6.896,17.126-19.438,17.126H263.16
				C262.743,62.118,262.379,61.962,262.066,61.649z M279.599,52.743c2.625,0,4.563-0.625,5.813-1.875s1.916-3.25,2-6
				c0.083-1.208,0.125-2.771,0.125-4.688c0-1.917-0.042-3.458-0.125-4.625c-0.084-2.666-0.803-4.635-2.156-5.907
				c-1.354-1.271-3.345-1.906-5.97-1.906h-5.938v25.001H279.599z"/>
			<path fill="#FFFFFF" d="M304.506,61.649c-0.313-0.313-0.469-0.677-0.469-1.094V19.928c0-0.458,0.156-0.833,0.469-1.125
				c0.313-0.291,0.677-0.438,1.094-0.438h8.938c0.458,0,0.833,0.146,1.125,0.438c0.291,0.292,0.438,0.667,0.438,1.125v40.627
				c0,0.417-0.146,0.781-0.438,1.094c-0.292,0.313-0.667,0.469-1.125,0.469H305.6C305.183,62.118,304.818,61.962,304.506,61.649z"/>
			<path fill="#FFFFFF" d="M318.757,61.712c-0.271-0.271-0.406-0.572-0.406-0.906c0-0.25,0.021-0.438,0.063-0.563l14.563-40.065
				c0.416-1.208,1.25-1.813,2.5-1.813h9.751c1.25,0,2.083,0.604,2.5,1.813l14.563,40.065c0.041,0.125,0.063,0.313,0.063,0.563
				c0,0.334-0.136,0.636-0.406,0.906c-0.272,0.271-0.574,0.406-0.907,0.406h-8.125c-1,0-1.709-0.458-2.125-1.375l-2.25-6.063
				h-16.376l-2.25,6.063c-0.417,0.917-1.125,1.375-2.125,1.375h-8.126C319.329,62.118,319.027,61.983,318.757,61.712z
				 M334.789,45.305h11.126l-5.563-15.938L334.789,45.305z"/>
			<path fill="#FFFFFF" d="M175,111.599c-0.313-0.313-0.469-0.677-0.469-1.094V69.94c0-0.458,0.146-0.844,0.438-1.156
				c0.291-0.313,0.666-0.469,1.125-0.469h17.188c5.5,0,9.802,1.25,12.907,3.75c3.104,2.5,4.657,6.021,4.657,10.563
				c0,2.917-0.678,5.397-2.032,7.438c-1.354,2.042-3.219,3.625-5.594,4.75l8.438,15.251c0.125,0.25,0.188,0.479,0.188,0.688
				c0,0.334-0.125,0.636-0.375,0.906c-0.25,0.271-0.563,0.406-0.938,0.406h-8.813c-1.209,0-2.063-0.563-2.563-1.688l-6.875-13.563
				h-6v13.688c0,0.459-0.156,0.834-0.469,1.125c-0.313,0.292-0.698,0.438-1.156,0.438h-8.563
				C175.677,112.067,175.313,111.911,175,111.599z M193.22,87.629c1.791,0,3.156-0.447,4.094-1.344s1.406-2.136,1.406-3.72
				c0-1.583-0.469-2.854-1.406-3.813c-0.938-0.958-2.303-1.438-4.094-1.438h-6.938v10.313H193.22z"/>
			<path fill="#FFFFFF" d="M212.127,111.661c-0.271-0.271-0.406-0.572-0.406-0.906c0-0.25,0.021-0.438,0.063-0.563l14.563-40.064
				c0.416-1.208,1.25-1.813,2.5-1.813h9.75c1.25,0,2.083,0.604,2.5,1.813l14.564,40.064c0.041,0.125,0.063,0.313,0.063,0.563
				c0,0.334-0.136,0.636-0.406,0.906c-0.272,0.271-0.574,0.406-0.907,0.406h-8.125c-1,0-1.709-0.458-2.125-1.375l-2.25-6.063
				h-16.376l-2.25,6.063c-0.417,0.917-1.125,1.375-2.125,1.375h-8.125C212.699,112.067,212.397,111.933,212.127,111.661z
				 M228.159,95.254h11.125l-5.563-15.938L228.159,95.254z"/>
			<path fill="#FFFFFF" d="M263.629,111.63c-0.313-0.291-0.469-0.666-0.469-1.125V78.503h-11.001c-0.459,0-0.844-0.146-1.156-0.438
				c-0.313-0.291-0.469-0.666-0.469-1.125v-7c0-0.458,0.156-0.844,0.469-1.156s0.697-0.469,1.156-0.469h33.939
				c0.458,0,0.844,0.156,1.156,0.469s0.469,0.698,0.469,1.156v7c0,0.459-0.156,0.834-0.469,1.125
				c-0.313,0.292-0.698,0.438-1.156,0.438h-11.001v32.002c0,0.459-0.156,0.834-0.469,1.125c-0.313,0.292-0.698,0.438-1.156,0.438
				h-8.688C264.326,112.067,263.941,111.922,263.629,111.63z"/>
			<path fill="#FFFFFF" d="M291.192,111.599c-0.313-0.313-0.469-0.677-0.469-1.094V69.94c0-0.458,0.146-0.844,0.438-1.156
				c0.291-0.313,0.666-0.469,1.125-0.469h29.502c0.458,0,0.844,0.156,1.156,0.469s0.469,0.698,0.469,1.156v6.188
				c0,0.459-0.156,0.834-0.469,1.125c-0.313,0.292-0.698,0.438-1.156,0.438h-19.751v7.938h18.376c0.458,0,0.844,0.157,1.156,0.47
				s0.469,0.698,0.469,1.156v5.688c0,0.459-0.156,0.844-0.469,1.156s-0.698,0.469-1.156,0.469h-18.376v8.125h20.251
				c0.458,0,0.844,0.156,1.156,0.469c0.313,0.313,0.469,0.699,0.469,1.157v6.188c0,0.459-0.156,0.834-0.469,1.125
				c-0.313,0.292-0.698,0.438-1.156,0.438h-30.002C291.869,112.067,291.505,111.911,291.192,111.599z"/>
			<path fill="#FFFFFF" d="M328.819,111.599c-0.313-0.313-0.469-0.677-0.469-1.094V69.94c0-0.458,0.146-0.844,0.438-1.156
				c0.291-0.313,0.666-0.469,1.125-0.469h17.188c5.501,0,9.803,1.25,12.907,3.75c3.104,2.5,4.656,6.021,4.656,10.563
				c0,2.917-0.678,5.397-2.031,7.438c-1.354,2.042-3.219,3.625-5.594,4.75l8.438,15.251c0.125,0.25,0.188,0.479,0.188,0.688
				c0,0.334-0.125,0.636-0.375,0.906c-0.25,0.271-0.563,0.406-0.938,0.406h-8.813c-1.209,0-2.063-0.563-2.563-1.688l-6.876-13.563
				h-6v13.688c0,0.459-0.156,0.834-0.469,1.125c-0.313,0.292-0.698,0.438-1.156,0.438h-8.563
				C329.496,112.067,329.132,111.911,328.819,111.599z M347.039,87.629c1.791,0,3.156-0.447,4.095-1.344
				c0.938-0.896,1.406-2.136,1.406-3.72c0-1.583-0.469-2.854-1.406-3.813c-0.938-0.958-2.304-1.438-4.095-1.438h-6.938v10.313
				H347.039z"/>
			<path fill="#FFFFFF" d="M375.541,110.942c-2.835-1.166-4.98-2.708-6.438-4.625c-1.459-1.916-2.229-4.001-2.313-6.251
				c0-0.375,0.135-0.688,0.406-0.938c0.271-0.25,0.594-0.375,0.969-0.375h8.313c0.5,0,0.906,0.084,1.219,0.25
				c0.313,0.167,0.656,0.459,1.031,0.875c0.541,1,1.385,1.823,2.531,2.469c1.146,0.646,2.677,0.97,4.594,0.97
				c2.25,0,3.979-0.345,5.188-1.032s1.813-1.635,1.813-2.844c0-0.875-0.313-1.594-0.938-2.156c-0.626-0.563-1.626-1.063-3.001-1.5
				s-3.354-0.927-5.938-1.469c-5.042-1-8.813-2.521-11.313-4.563c-2.5-2.041-3.75-4.959-3.75-8.751c0-2.583,0.719-4.885,2.156-6.906
				c1.438-2.021,3.479-3.594,6.126-4.719c2.646-1.125,5.719-1.688,9.219-1.688c3.666,0,6.845,0.637,9.532,1.907
				c2.688,1.271,4.75,2.854,6.188,4.75c1.438,1.896,2.197,3.761,2.281,5.594c0,0.375-0.125,0.698-0.375,0.969
				c-0.25,0.271-0.563,0.406-0.938,0.406h-8.75c-0.917,0-1.625-0.375-2.126-1.125c-0.25-0.875-0.896-1.614-1.938-2.219
				c-1.042-0.604-2.334-0.906-3.875-0.906c-1.75,0-3.104,0.313-4.063,0.938c-0.959,0.625-1.438,1.542-1.438,2.75
				c0,1.209,0.625,2.156,1.875,2.844s3.583,1.386,7,2.094c3.917,0.71,7.032,1.595,9.345,2.657s4.021,2.438,5.125,4.125
				c1.104,1.688,1.656,3.823,1.656,6.406c0,2.834-0.813,5.293-2.438,7.376c-1.625,2.084-3.875,3.678-6.75,4.781
				s-6.168,1.656-9.876,1.656C381.812,112.692,378.374,112.108,375.541,110.942z"/>
		</g>
	</g>
</g>
</svg>
